<?xml version="1.0" encoding="UTF-8"?>
<svg xmlns="http://www.w3.org/2000/svg" xmlns:xlink="http://www.w3.org/1999/xlink" width="220px" height="170px" viewBox="0 0 220 170" version="1.1">
<g id="surface1">
<rect x="0" y="0" width="220" height="170" style="fill:rgb(100%,100%,100%);fill-opacity:1;stroke:none;"/>
<path style=" stroke:none;fill-rule:evenodd;fill:rgb(0%,0%,0%);fill-opacity:1;" d="M 139.691406 51.539062 C 137.75 51.539062 136.175781 52.753906 136.175781 54.253906 C 136.175781 55.199219 136.777344 56.03125 137.722656 56.515625 L 125.800781 76.289062 L 128.292969 49.960938 C 130.171875 49.835938 131.589844 48.59375 131.511719 47.136719 C 131.429688 45.683594 129.878906 44.535156 127.996094 44.535156 C 126.054688 44.535156 124.480469 45.75 124.480469 47.25 C 124.480469 48.429688 125.453125 49.417969 126.820312 49.792969 L 118.636719 75.496094 L 114.589844 47.140625 C 116.121094 46.828125 117.183594 45.761719 117.179688 44.539062 C 117.179688 43.039062 115.609375 41.824219 113.664062 41.824219 C 111.722656 41.824219 110.152344 43.039062 110.152344 44.539062 C 110.152344 45.894531 111.445312 46.988281 113.125 47.191406 L 109.863281 74.816406 L 100.382812 49.871094 C 101.542969 49.40625 102.265625 48.484375 102.265625 47.476562 C 102.265625 45.976562 100.691406 44.761719 98.75 44.761719 C 96.808594 44.761719 95.234375 45.976562 95.234375 47.476562 C 95.234375 48.976562 96.808594 50.191406 98.75 50.191406 C 98.800781 50.191406 98.855469 50.191406 98.90625 50.1875 L 102.992188 76.289062 L 89.222656 57.296875 C 90.628906 56.445312 90.984375 54.910156 90.046875 53.734375 C 89.109375 52.558594 87.175781 52.113281 85.558594 52.703125 C 83.9375 53.289062 83.148438 54.722656 83.726562 56.03125 C 84.300781 57.339844 86.054688 58.109375 87.800781 57.8125 L 99.335938 84.535156 C 101.96875 90.75 125.359375 90.863281 128.867188 84.535156 L 139.285156 56.9375 C 139.429688 56.953125 139.539062 56.972656 139.691406 56.972656 C 141.605469 56.945312 143.140625 55.738281 143.144531 54.253906 C 143.144531 52.773438 141.609375 51.566406 139.691406 51.539062 Z M 113.8125 87.390625 C 107.851562 87.390625 103.019531 86.003906 103.019531 84.289062 C 103.019531 82.578125 107.851562 81.773438 113.8125 81.773438 C 119.773438 81.773438 123.972656 82.578125 123.972656 84.289062 C 123.972656 86.003906 119.773438 87.390625 113.8125 87.390625 Z M 130.757812 103.304688 L 134.238281 103.304688 C 136.351562 103.304688 137.089844 103.671875 137.089844 105.101562 L 137.089844 122.679688 C 137.089844 124.066406 136.351562 124.597656 134.238281 124.597656 L 130.757812 124.597656 L 130.757812 127.4375 L 166.332031 127.4375 L 166.332031 115.765625 L 162.96875 115.765625 C 162.96875 121.519531 160.019531 124.546875 155.054688 124.546875 L 145.070312 124.546875 L 145.070312 115.195312 L 147.03125 115.195312 C 150.253906 115.195312 152.09375 116.300781 152.09375 118.335938 L 152.09375 119.972656 L 155.953125 119.972656 L 155.953125 106.992188 L 152.09375 106.992188 L 152.09375 108.421875 C 152.09375 110.421875 150.148438 111.644531 147.03125 111.644531 L 145.070312 111.644531 L 145.070312 103.304688 L 154.367188 103.304688 C 161.183594 103.304688 162.597656 106.335938 162.96875 110.867188 L 166.332031 110.867188 L 166.332031 100.21875 L 130.757812 100.21875 Z M 115.109375 124.546875 L 106.679688 124.546875 L 106.679688 105.222656 C 106.679688 103.796875 107.417969 103.304688 109.53125 103.304688 L 112.699219 103.304688 L 112.699219 100.285156 L 93.03125 100.285156 L 93.03125 103.304688 L 95.777344 103.304688 C 97.890625 103.304688 98.632812 103.796875 98.632812 105.222656 L 98.632812 122.679688 C 98.632812 124.066406 97.890625 124.597656 95.777344 124.597656 L 93.03125 124.597656 L 93.03125 127.507812 L 126.367188 127.507812 L 126.367188 115.550781 L 122.566406 115.550781 C 122.460938 120.242188 122.503906 124.546875 115.109375 124.546875 Z M 68.085938 99.457031 C 55.9375 99.457031 48.375 106.695312 48.332031 113.503906 C 48.277344 122.320312 55.832031 127.871094 67.714844 127.871094 C 80.335938 127.871094 87.679688 122.402344 87.679688 113.054688 C 87.679688 106.128906 79.753906 99.457031 68.085938 99.457031 Z M 67.820312 124.660156 C 61.480469 124.660156 57.835938 120.28125 57.835938 113.300781 C 57.835938 106.484375 61.640625 102.964844 68.136719 102.964844 C 74.367188 102.964844 78.011719 106.566406 78.011719 113.585938 C 78.015625 120.441406 74.316406 124.660156 67.820312 124.660156 Z M 213.066406 103.304688 L 216.765625 103.304688 L 216.765625 100.246094 L 198.882812 100.246094 L 198.882812 103.304688 L 201.222656 103.304688 C 202.101562 103.410156 202.683594 104.105469 201.808594 104.785156 L 196.835938 109.191406 L 192.890625 105.460938 C 192.011719 104.671875 192.15625 103.3125 193.765625 103.3125 L 195.570312 103.304688 L 195.570312 100.246094 L 175.195312 100.246094 L 175.195312 103.304688 C 180.3125 103.417969 181.589844 103.878906 183.441406 105.714844 L 191.71875 113.480469 L 180.460938 122.632812 C 178.453125 124.386719 178.261719 124.546875 175.195312 124.546875 L 175.195312 127.46875 L 193.035156 127.46875 L 193.035156 124.546875 L 188.765625 124.546875 C 187.5 124.546875 187.234375 123.835938 187.234375 123.304688 C 187.234375 122.777344 188.132812 122.164062 188.503906 121.796875 L 194.789062 116.296875 L 201.078125 122.082031 C 201.394531 122.410156 201.921875 122.777344 201.921875 123.183594 C 201.921875 123.714844 201.339844 124.546875 200.125 124.546875 L 196.589844 124.546875 L 196.589844 127.46875 L 216.765625 127.46875 L 216.765625 124.546875 C 213.578125 124.546875 213.292969 124.429688 210.433594 121.730469 L 199.90625 112.128906 L 207.070312 106.140625 C 209.710938 103.976562 210.742188 103.304688 213.066406 103.304688 Z M 39.941406 119.648438 L 39.941406 121.046875 C 39.941406 122.71875 38.675781 123.574219 37.621094 123.574219 C 35.933594 123.574219 35.828125 121.984375 35.71875 121.046875 L 35.71875 119.917969 C 35.71875 116.1875 33.527344 114.71875 30.75 113.589844 C 35.925781 112.652344 39.359375 110.261719 39.359375 106.957031 C 39.359375 102.667969 35.558594 100.21875 28.796875 100.21875 L 3.234375 100.21875 L 3.234375 103.304688 L 6.695312 103.304688 C 8.808594 103.304688 9.546875 103.683594 9.546875 105.113281 L 9.546875 122.628906 C 9.546875 124.015625 8.808594 124.546875 6.695312 124.546875 L 3.234375 124.546875 L 3.234375 127.441406 L 23.144531 127.441406 L 23.144531 124.546875 L 20.398438 124.546875 C 18.285156 124.546875 17.546875 124.015625 17.546875 122.628906 L 17.546875 114.832031 L 21.097656 114.832031 C 24.902344 114.832031 27.6875 116.472656 27.898438 119.574219 L 28.214844 123.15625 C 28.425781 126.421875 31.28125 128.175781 36.296875 128.175781 C 41.632812 128.175781 42.882812 126.175781 42.882812 121.933594 L 42.882812 119.648438 Z M 23.730469 111.289062 L 17.550781 111.289062 L 17.550781 103.28125 L 23.042969 103.28125 C 28.324219 103.28125 30.226562 104.636719 30.226562 107.289062 C 30.226562 110.023438 28.167969 111.289062 23.730469 111.289062 Z M 23.730469 111.289062 "/>
</g>
</svg>
